<svg id="svg" version="1.1" xmlns="http://www.w3.org/2000/svg" xmlns:xlink="http://www.w3.org/1999/xlink" width="400" height="400" viewBox="0, 0, 400,400"><g id="svgg"><path id="path0" d="M38.850 15.500 C 39.088 40.123,40.199 39.021,15.300 38.849 L 0.000 38.744 0.000 43.772 L 0.000 48.800 16.900 48.802 C 33.527 48.804,43.614 48.303,44.728 47.419 C 48.815 44.178,48.800 44.282,48.800 19.933 L 48.800 0.000 43.750 0.000 L 38.701 0.000 38.850 15.500 M351.343 20.300 C 351.594 44.396,351.507 43.545,353.968 46.006 C 356.268 48.306,356.192 48.296,373.800 48.816 C 380.620 49.018,387.460 49.364,389.000 49.585 C 390.540 49.807,393.645 50.104,395.900 50.246 L 400.000 50.505 400.000 44.852 L 400.000 39.200 391.100 39.114 C 386.205 39.067,379.590 39.014,376.400 38.997 C 361.465 38.920,361.376 38.783,361.545 16.100 L 361.665 0.000 356.398 0.000 L 351.131 0.000 351.343 20.300 M141.782 110.132 C 138.301 111.023,134.769 113.859,133.701 116.621 C 130.921 123.813,134.750 129.490,144.114 132.058 C 146.994 132.848,149.605 134.998,150.882 137.630 L 151.964 139.860 152.434 154.830 C 152.752 164.974,152.791 174.571,152.556 184.600 C 151.946 210.547,152.081 227.580,152.930 232.000 C 154.306 239.159,154.391 239.803,154.143 241.200 C 153.818 243.030,153.340 243.913,152.055 245.049 C 150.985 245.995,143.986 249.600,143.218 249.600 C 142.988 249.600,142.800 249.736,142.800 249.902 C 142.800 250.069,142.277 250.436,141.638 250.719 C 140.092 251.404,138.400 253.134,138.400 254.031 C 138.400 254.428,138.220 254.864,138.000 255.000 C 137.780 255.136,137.600 256.491,137.600 258.011 C 137.600 262.891,139.874 265.578,146.400 268.409 L 148.600 269.364 168.000 269.510 C 195.025 269.714,208.515 269.045,222.400 266.811 C 228.176 265.881,229.014 265.697,233.260 264.423 C 235.337 263.799,240.816 260.924,242.000 259.837 C 242.550 259.331,243.810 258.371,244.800 257.704 C 245.790 257.036,247.199 255.915,247.931 255.212 C 248.663 254.509,249.833 253.541,250.531 253.060 C 251.580 252.338,253.496 250.420,257.061 246.525 C 257.314 246.248,257.935 245.341,258.440 244.511 C 258.945 243.680,259.643 242.730,259.991 242.400 C 261.105 241.342,264.532 233.945,266.270 228.847 C 266.599 227.883,267.375 225.993,267.996 224.647 C 272.144 215.647,273.596 187.904,270.792 171.200 C 270.589 169.990,270.137 167.290,269.788 165.200 C 269.193 161.643,267.778 156.302,267.191 155.400 C 267.048 155.180,266.524 153.920,266.026 152.600 C 265.006 149.893,264.850 149.514,263.423 146.288 C 262.860 145.017,262.400 143.782,262.400 143.545 C 262.400 142.838,260.109 138.263,259.322 137.400 C 258.922 136.960,258.268 136.093,257.870 135.474 C 257.070 134.228,256.861 133.961,254.227 130.824 C 253.222 129.627,252.400 128.513,252.400 128.347 C 252.400 128.182,251.275 127.186,249.900 126.134 C 248.525 125.081,247.051 123.901,246.625 123.510 C 246.199 123.120,245.344 122.576,244.725 122.303 C 244.106 122.029,243.600 121.669,243.600 121.502 C 243.600 121.336,243.375 121.198,243.100 121.197 C 242.825 121.195,241.966 120.610,241.191 119.897 C 240.416 119.183,238.976 117.979,237.991 117.221 C 237.006 116.462,236.063 115.619,235.895 115.348 C 234.994 113.888,229.419 112.023,221.600 110.566 C 216.924 109.695,145.022 109.304,141.782 110.132 M205.132 131.206 C 214.676 132.208,216.702 132.753,221.081 135.496 C 222.225 136.213,223.325 136.800,223.524 136.800 C 223.724 136.800,224.678 137.485,225.644 138.322 C 226.610 139.159,228.210 140.314,229.200 140.889 C 233.179 143.201,239.200 151.609,239.200 154.854 C 239.200 155.093,239.730 156.303,240.377 157.544 C 241.454 159.608,242.135 161.936,243.259 167.400 C 243.622 169.168,244.696 173.092,245.612 176.000 C 247.335 181.474,247.627 197.310,246.132 204.200 C 245.654 206.400,245.050 209.460,244.790 211.000 C 244.530 212.540,244.156 214.213,243.959 214.719 C 243.761 215.224,243.600 215.934,243.600 216.296 C 243.600 217.202,241.662 223.616,241.091 224.600 C 240.836 225.040,239.979 226.665,239.187 228.212 C 237.346 231.808,235.175 234.419,232.200 236.615 C 231.320 237.264,230.510 237.888,230.400 238.002 C 230.290 238.115,229.523 238.563,228.695 238.998 C 227.867 239.432,226.777 240.170,226.273 240.637 C 225.104 241.721,221.751 243.600,220.986 243.600 C 220.664 243.600,220.400 243.744,220.400 243.920 C 220.400 244.550,216.408 245.588,210.800 246.415 C 207.002 246.976,188.683 247.411,185.097 247.026 C 182.355 246.731,179.064 245.054,178.376 243.600 C 178.220 243.270,177.877 242.533,177.613 241.963 C 177.299 241.287,177.209 239.825,177.351 237.763 C 177.805 231.208,178.445 175.998,178.233 161.662 C 177.849 135.747,178.453 133.867,188.000 131.263 C 189.907 130.743,200.389 130.708,205.132 131.206 M0.000 353.938 L 0.000 360.677 5.500 360.942 C 8.525 361.088,15.590 361.306,21.200 361.427 C 40.059 361.833,39.078 360.214,39.173 391.100 L 39.200 400.000 44.800 400.000 C 49.873 400.000,50.399 399.934,50.385 399.300 C 50.376 398.915,50.082 395.810,49.731 392.400 C 49.381 388.990,48.959 379.990,48.794 372.400 C 48.445 356.263,48.470 356.432,46.021 353.983 L 44.154 352.116 39.177 351.862 C 36.440 351.722,30.420 351.509,25.800 351.388 C 16.783 351.153,14.071 350.794,10.000 349.294 C 6.246 347.911,3.388 347.200,1.580 347.200 L 0.000 347.200 0.000 353.938 M366.400 351.622 C 364.530 351.786,361.523 351.938,359.718 351.960 L 356.436 352.000 354.291 354.100 L 352.147 356.200 351.673 360.077 C 351.413 362.209,351.200 368.970,351.200 375.103 C 351.200 381.236,351.035 387.231,350.833 388.427 C 350.631 389.622,350.368 392.715,350.248 395.300 L 350.029 400.000 355.615 400.000 L 361.200 400.000 361.275 393.100 C 361.316 389.305,361.361 382.150,361.375 377.200 C 361.419 361.473,361.232 361.600,384.328 361.600 L 400.000 361.600 400.000 356.400 L 400.000 351.200 384.900 351.262 C 376.595 351.296,368.270 351.458,366.400 351.622 " stroke="none" fill="#d9d9d9" fill-rule="evenodd"></path><path id="path1" d="M-0.000 16.590 L -0.000 33.179 13.500 33.290 C 33.667 33.455,34.553 33.090,33.829 24.930 C 33.695 23.428,33.485 17.205,33.360 11.100 L 33.134 -0.000 16.567 -0.000 L 0.000 0.000 -0.000 16.590 M54.280 22.100 C 54.064 41.321,53.943 44.461,53.357 46.200 C 52.554 48.585,50.909 51.156,49.800 51.763 C 49.360 52.003,48.910 52.303,48.800 52.429 C 47.692 53.698,43.545 53.979,21.900 54.252 L 0.000 54.529 0.000 189.064 L 0.000 323.600 3.389 323.600 C 6.851 323.600,10.306 324.649,11.815 326.158 C 13.717 328.060,14.693 334.588,13.630 338.295 C 13.422 339.019,13.405 340.158,13.591 340.892 C 13.773 341.612,14.033 342.695,14.169 343.300 C 14.304 343.905,14.648 344.400,14.932 344.400 C 15.217 344.400,16.195 344.760,17.106 345.200 C 18.615 345.929,19.584 346.000,28.081 346.003 C 53.377 346.013,54.017 346.568,54.004 368.513 C 53.999 375.789,54.170 381.396,54.433 382.600 C 55.077 385.546,56.496 390.000,56.792 390.000 C 56.933 390.000,57.398 390.316,57.825 390.701 C 59.945 392.618,60.400 392.727,62.371 391.785 C 68.725 388.750,73.600 391.805,73.600 398.820 L 73.600 400.000 200.400 400.000 L 327.200 400.000 327.200 398.260 C 327.200 392.357,332.055 388.955,337.170 391.273 C 338.176 391.729,339.105 392.267,339.234 392.468 C 339.363 392.670,340.443 392.180,341.634 391.380 C 344.298 389.591,344.009 389.910,344.400 388.332 C 344.582 387.599,345.016 385.956,345.365 384.680 C 345.878 382.808,346.000 380.101,346.000 370.625 C 346.000 345.617,344.950 346.413,378.300 346.120 L 400.000 345.930 400.000 202.565 L 400.000 59.200 399.026 59.200 C 397.395 59.200,392.209 57.997,392.067 57.586 C 391.993 57.374,391.678 57.200,391.367 57.200 C 391.055 57.200,390.800 57.059,390.800 56.887 C 390.800 56.715,389.945 56.342,388.900 56.057 C 387.855 55.773,386.596 55.378,386.102 55.180 C 384.757 54.639,380.249 54.361,367.200 54.012 C 354.107 53.662,352.449 53.403,350.035 51.337 C 346.213 48.066,346.000 46.447,346.000 20.700 L 346.000 0.000 200.264 -0.000 L 54.529 -0.000 54.280 22.100 M366.790 11.700 C 366.785 18.135,366.601 24.177,366.382 25.127 C 365.909 27.180,366.460 29.553,367.853 31.455 C 369.160 33.239,371.014 33.420,386.700 33.289 L 400.000 33.179 400.000 16.589 L 400.000 0.000 383.400 0.000 L 366.800 0.000 366.790 11.700 M252.409 35.400 C 252.409 35.620,251.417 35.854,250.205 35.920 C 248.401 36.018,248.000 35.924,248.000 35.400 C 248.000 34.876,248.401 34.782,250.205 34.880 C 251.417 34.946,252.409 35.180,252.409 35.400 M157.571 38.254 C 159.801 41.090,156.347 43.274,153.633 40.745 C 152.552 39.738,152.692 39.251,154.390 38.100 C 156.095 36.945,156.559 36.967,157.571 38.254 M157.374 63.971 C 157.986 64.647,158.009 64.919,157.561 66.158 C 156.834 68.166,156.229 68.195,154.605 66.297 L 153.179 64.631 154.489 63.932 C 156.177 63.032,156.529 63.037,157.374 63.971 M216.600 102.993 C 219.020 103.127,221.810 103.392,222.800 103.583 C 228.092 104.602,229.542 104.959,231.000 105.601 C 231.880 105.988,233.230 106.528,234.000 106.800 C 237.370 107.989,239.691 109.389,242.813 112.115 C 243.371 112.602,244.541 113.530,245.413 114.179 C 246.286 114.827,247.090 115.466,247.200 115.598 C 247.310 115.730,248.030 116.271,248.800 116.800 C 249.570 117.329,250.470 118.058,250.800 118.419 C 251.130 118.780,252.061 119.388,252.869 119.769 C 254.585 120.578,256.854 122.694,260.194 126.600 C 261.511 128.140,262.683 129.490,262.798 129.600 C 262.913 129.710,263.366 130.520,263.804 131.400 C 264.242 132.280,264.705 133.090,264.834 133.200 C 265.308 133.605,267.428 137.849,267.930 139.400 C 268.643 141.598,269.723 144.159,270.041 144.400 C 270.185 144.510,270.922 145.790,271.679 147.244 C 272.435 148.698,273.438 150.377,273.909 150.975 C 274.810 152.121,276.058 155.916,276.744 159.600 C 276.969 160.810,277.338 162.790,277.563 164.000 C 280.201 178.164,280.233 212.308,277.616 220.400 C 277.438 220.950,277.068 222.210,276.793 223.200 C 275.961 226.197,274.893 229.023,273.745 231.269 C 272.176 234.338,272.000 234.738,272.000 235.241 C 272.000 236.226,267.024 245.793,265.805 247.152 C 265.091 247.948,264.380 249.004,264.227 249.498 C 263.913 250.505,254.632 260.000,253.961 260.000 C 253.725 260.000,252.964 260.641,252.271 261.424 C 251.577 262.207,250.108 263.401,249.005 264.077 C 247.902 264.752,246.910 265.440,246.800 265.606 C 246.207 266.500,237.764 270.660,234.600 271.618 C 233.720 271.884,232.587 272.259,232.081 272.451 C 231.576 272.643,230.731 272.800,230.205 272.800 C 229.678 272.800,229.149 272.959,229.030 273.152 C 228.910 273.346,228.404 273.603,227.906 273.724 C 227.408 273.845,226.280 274.151,225.400 274.404 C 222.000 275.380,214.414 276.260,199.800 277.373 C 195.180 277.725,189.690 278.192,187.600 278.410 C 182.364 278.958,150.257 278.922,147.531 278.365 C 135.636 275.936,129.831 271.253,128.468 262.988 C 127.296 255.873,131.878 247.070,138.013 244.652 C 138.996 244.265,140.432 243.535,141.205 243.031 C 141.978 242.527,142.996 241.992,143.467 241.842 C 145.457 241.211,145.748 239.394,145.197 231.034 C 144.824 225.361,144.777 217.903,145.015 202.000 C 145.441 173.590,145.307 149.407,144.704 145.662 C 144.176 142.382,141.772 139.959,138.446 139.353 C 136.689 139.032,131.600 136.818,131.600 136.373 C 131.600 136.198,131.285 135.953,130.900 135.829 C 128.630 135.101,125.418 130.705,124.040 126.440 C 123.462 124.655,123.474 117.547,124.056 116.119 C 124.307 115.503,124.757 114.433,125.056 113.740 C 125.355 113.046,125.600 112.281,125.600 112.040 C 125.600 111.798,125.738 111.600,125.906 111.600 C 126.074 111.600,126.632 110.925,127.147 110.100 C 129.521 106.297,134.888 103.423,140.650 102.868 C 144.269 102.519,209.973 102.628,216.600 102.993 M319.727 111.300 C 321.189 114.668,321.177 114.529,320.104 115.676 C 318.717 117.157,316.109 115.747,316.634 113.800 C 317.568 110.343,318.858 109.300,319.727 111.300 M190.400 139.640 C 189.833 139.854,188.794 141.009,188.000 142.309 L 186.600 144.600 186.512 163.600 C 186.463 174.050,186.303 194.858,186.155 209.841 C 185.955 230.095,186.003 237.155,186.343 237.365 C 186.594 237.520,186.800 237.919,186.800 238.252 C 186.800 240.023,191.239 241.080,195.869 240.411 C 197.371 240.194,199.621 240.012,200.869 240.008 C 202.976 240.001,205.362 239.635,208.800 238.793 C 209.570 238.605,211.100 238.246,212.200 237.995 C 215.842 237.166,221.200 235.458,221.200 235.126 C 221.200 234.947,221.393 234.800,221.628 234.800 C 221.863 234.800,222.808 234.285,223.728 233.655 C 224.648 233.025,225.779 232.391,226.241 232.246 C 230.381 230.952,234.988 222.621,236.001 214.600 C 236.992 206.749,237.165 205.666,238.013 202.000 C 239.666 194.859,239.512 186.304,237.588 178.400 C 237.086 176.337,236.671 174.183,236.008 170.200 C 235.752 168.660,235.191 166.320,234.762 165.000 C 234.333 163.680,233.794 161.970,233.563 161.200 C 230.122 149.725,224.368 144.157,212.400 140.721 C 207.844 139.412,192.945 138.681,190.400 139.640 M52.400 156.311 C 52.400 156.481,51.635 156.562,50.700 156.489 C 47.898 156.272,47.659 156.096,50.100 156.046 C 51.365 156.021,52.400 156.140,52.400 156.311 M357.274 170.805 C 357.625 173.609,357.069 174.374,355.236 173.615 C 354.230 173.198,354.087 172.985,354.410 172.382 C 354.624 171.981,354.800 171.269,354.800 170.800 C 354.800 167.698,356.886 167.702,357.274 170.805 M82.582 196.618 C 83.929 197.965,83.760 198.600,81.752 199.731 C 80.289 200.554,79.166 197.817,80.416 196.475 C 81.425 195.392,81.351 195.388,82.582 196.618 M336.394 234.386 C 336.810 235.391,336.785 235.672,336.229 236.229 C 334.653 237.805,332.544 235.750,334.070 234.126 C 335.227 232.894,335.803 232.959,336.394 234.386 M346.361 243.528 C 346.839 243.985,346.710 244.277,345.493 245.493 C 344.276 246.711,343.985 246.839,343.525 246.361 C 340.870 243.600,343.593 240.878,346.361 243.528 M361.579 243.182 L 362.480 243.964 361.597 245.204 C 360.772 246.363,360.666 246.402,359.996 245.797 C 358.866 244.774,358.759 243.674,359.726 242.997 C 360.755 242.276,360.506 242.251,361.579 243.182 M383.200 297.898 C 383.200 299.383,381.503 299.998,380.331 298.938 C 379.395 298.091,379.411 297.823,380.473 296.602 L 381.346 295.598 382.273 296.469 C 382.783 296.948,383.200 297.591,383.200 297.898 M0.000 383.400 L 0.000 400.000 16.563 400.000 L 33.125 400.000 33.359 388.900 C 33.487 382.795,33.700 376.664,33.833 375.275 C 34.587 367.366,33.233 366.800,13.569 366.800 L 0.000 366.800 0.000 383.400 M370.800 367.250 C 368.565 367.853,367.679 368.434,367.282 369.553 C 366.084 372.938,365.986 373.555,366.379 375.259 C 366.600 376.217,366.785 382.175,366.790 388.500 L 366.800 400.000 383.400 400.000 L 400.000 400.000 400.000 383.400 L 400.000 366.800 386.100 366.836 C 378.455 366.856,371.570 367.042,370.800 367.250 " stroke="none" fill="#040404" fill-rule="evenodd"></path><path id="path2" d="M33.360 11.100 C 33.485 17.205,33.696 23.451,33.831 24.980 C 34.540 33.043,34.063 33.246,14.500 33.207 L 0.000 33.178 0.000 34.818 L 0.000 36.458 15.718 36.329 C 38.618 36.141,36.759 38.433,36.500 10.700 L 36.400 0.000 34.767 0.000 L 33.134 0.000 33.360 11.100 M51.520 21.900 L 51.374 43.800 50.040 46.302 C 48.825 48.580,48.474 48.915,46.114 50.041 L 43.522 51.278 21.761 51.501 L 0.000 51.723 0.000 53.126 L 0.000 54.529 21.900 54.252 C 43.545 53.979,47.692 53.698,48.800 52.429 C 48.910 52.303,49.360 52.003,49.800 51.763 C 50.909 51.156,52.554 48.585,53.357 46.200 C 53.943 44.461,54.064 41.321,54.280 22.100 L 54.529 0.000 53.097 0.000 L 51.665 0.000 51.520 21.900 M346.000 20.700 C 346.000 54.436,345.358 53.428,367.200 54.012 C 380.249 54.361,384.757 54.639,386.102 55.180 C 386.596 55.378,387.855 55.773,388.900 56.057 C 389.945 56.342,390.800 56.715,390.800 56.887 C 390.800 57.059,391.055 57.200,391.367 57.200 C 391.678 57.200,391.993 57.374,392.067 57.586 C 392.209 57.997,397.395 59.200,399.026 59.200 C 399.958 59.200,400.000 59.088,400.000 56.600 L 400.000 54.000 397.006 54.000 C 395.359 54.000,393.244 53.826,392.306 53.613 C 391.368 53.401,389.340 52.932,387.800 52.573 C 385.713 52.086,381.485 51.826,371.200 51.551 C 347.630 50.923,348.825 52.569,348.810 20.700 L 348.800 0.000 347.400 0.000 L 346.000 0.000 346.000 20.700 M363.911 14.327 C 363.677 30.578,363.782 31.907,365.439 33.650 C 367.909 36.248,367.477 36.187,384.500 36.329 L 400.000 36.458 400.000 34.813 L 400.000 33.168 385.894 33.220 C 378.136 33.248,371.109 33.144,370.279 32.988 C 367.572 32.481,365.603 28.507,366.382 25.127 C 366.601 24.177,366.785 18.135,366.790 11.700 L 366.800 0.000 365.458 0.000 L 364.117 0.000 363.911 14.327 M248.000 35.400 C 248.000 35.924,248.401 36.018,250.205 35.920 C 251.417 35.854,252.409 35.620,252.409 35.400 C 252.409 35.180,251.417 34.946,250.205 34.880 C 248.401 34.782,248.000 34.876,248.000 35.400 M154.390 38.100 C 152.692 39.251,152.552 39.738,153.633 40.745 C 156.347 43.274,159.801 41.090,157.571 38.254 C 156.559 36.967,156.095 36.945,154.390 38.100 M154.489 63.932 L 153.179 64.631 154.605 66.297 C 156.229 68.195,156.834 68.166,157.561 66.158 C 158.446 63.710,156.945 62.623,154.489 63.932 M140.650 102.868 C 134.888 103.423,129.521 106.297,127.147 110.100 C 126.632 110.925,126.074 111.600,125.906 111.600 C 125.738 111.600,125.600 111.798,125.600 112.040 C 125.600 112.281,125.355 113.046,125.056 113.740 C 124.757 114.433,124.307 115.503,124.056 116.119 C 121.672 121.966,125.932 134.236,130.900 135.829 C 131.285 135.953,131.600 136.198,131.600 136.373 C 131.600 136.818,136.689 139.032,138.446 139.353 C 141.772 139.959,144.176 142.382,144.704 145.662 C 145.307 149.407,145.441 173.590,145.015 202.000 C 144.777 217.903,144.824 225.361,145.197 231.034 C 145.748 239.394,145.457 241.211,143.467 241.842 C 142.996 241.992,141.978 242.527,141.205 243.031 C 140.432 243.535,138.996 244.265,138.013 244.652 C 135.040 245.824,132.845 247.840,131.101 251.000 C 123.863 264.118,130.304 274.847,147.531 278.365 C 150.257 278.922,182.364 278.958,187.600 278.410 C 189.690 278.192,195.180 277.725,199.800 277.373 C 214.414 276.260,222.000 275.380,225.400 274.404 C 226.280 274.151,227.408 273.845,227.906 273.724 C 228.404 273.603,228.910 273.346,229.030 273.152 C 229.149 272.959,229.678 272.800,230.205 272.800 C 230.731 272.800,231.576 272.643,232.081 272.451 C 232.587 272.259,233.720 271.884,234.600 271.618 C 237.764 270.660,246.207 266.500,246.800 265.606 C 246.910 265.440,247.902 264.752,249.005 264.077 C 250.108 263.401,251.577 262.207,252.271 261.424 C 252.964 260.641,253.725 260.000,253.961 260.000 C 254.632 260.000,263.913 250.505,264.227 249.498 C 264.380 249.004,265.091 247.948,265.805 247.152 C 267.024 245.793,272.000 236.226,272.000 235.241 C 272.000 234.738,272.176 234.338,273.745 231.269 C 274.893 229.023,275.961 226.197,276.793 223.200 C 277.068 222.210,277.438 220.950,277.616 220.400 C 280.233 212.308,280.201 178.164,277.563 164.000 C 277.338 162.790,276.969 160.810,276.744 159.600 C 276.058 155.916,274.810 152.121,273.909 150.975 C 273.438 150.377,272.435 148.698,271.679 147.244 C 270.922 145.790,270.185 144.510,270.041 144.400 C 269.723 144.159,268.643 141.598,267.930 139.400 C 267.428 137.849,265.308 133.605,264.834 133.200 C 264.705 133.090,264.242 132.280,263.804 131.400 C 263.366 130.520,262.913 129.710,262.798 129.600 C 262.683 129.490,261.511 128.140,260.194 126.600 C 256.854 122.694,254.585 120.578,252.869 119.769 C 252.061 119.388,251.130 118.780,250.800 118.419 C 250.470 118.058,249.570 117.329,248.800 116.800 C 248.030 116.271,247.310 115.730,247.200 115.598 C 247.090 115.466,246.286 114.827,245.413 114.179 C 244.541 113.530,243.371 112.602,242.813 112.115 C 239.691 109.389,237.370 107.989,234.000 106.800 C 233.230 106.528,231.880 105.988,231.000 105.601 C 229.542 104.959,228.092 104.602,222.800 103.583 C 218.459 102.747,148.250 102.135,140.650 102.868 M187.600 106.193 C 227.678 106.446,232.989 107.404,242.008 116.000 C 244.076 117.970,246.178 119.600,246.652 119.600 C 246.953 119.600,247.200 119.780,247.200 120.000 C 247.200 120.220,247.393 120.400,247.628 120.400 C 249.033 120.400,255.555 126.190,258.216 129.800 C 258.865 130.680,259.509 131.490,259.647 131.600 C 260.387 132.189,263.287 137.187,264.011 139.120 C 264.471 140.350,265.091 141.817,265.388 142.378 C 265.685 142.940,266.238 144.120,266.617 145.000 C 266.995 145.880,267.847 147.680,268.510 149.000 C 270.894 153.751,271.110 154.234,271.904 156.600 C 274.138 163.257,275.064 169.114,275.598 179.959 C 276.744 203.213,275.615 217.189,271.913 225.600 C 271.477 226.590,270.964 227.760,270.774 228.200 C 268.834 232.677,268.400 233.754,268.400 234.089 C 268.400 234.543,265.196 241.304,264.840 241.600 C 264.708 241.710,264.281 242.430,263.891 243.200 C 261.725 247.474,254.748 255.077,249.392 259.000 C 248.791 259.440,247.287 260.561,246.050 261.490 C 244.812 262.420,243.170 263.500,242.400 263.890 C 241.630 264.281,240.910 264.698,240.800 264.819 C 239.289 266.472,227.562 270.129,220.200 271.243 C 205.739 273.431,197.249 273.957,171.668 274.247 C 148.645 274.508,147.137 274.365,140.877 271.317 C 132.208 267.097,130.477 256.196,137.396 249.387 C 138.556 248.245,140.015 247.182,140.638 247.026 C 143.483 246.312,146.900 244.252,148.248 242.439 C 149.831 240.308,149.843 239.896,148.630 228.800 C 148.087 223.839,147.997 220.441,148.179 211.800 C 149.079 168.957,148.852 145.313,147.500 141.200 C 146.606 138.484,144.055 136.371,141.000 135.817 C 129.537 133.739,124.333 121.499,131.040 112.389 C 132.007 111.075,132.945 110.000,133.124 110.000 C 133.303 110.000,133.798 109.684,134.225 109.297 C 137.123 106.670,143.179 105.606,153.800 105.859 C 157.540 105.949,172.750 106.098,187.600 106.193 M318.200 110.515 C 317.139 111.801,316.277 114.401,316.709 115.009 C 318.320 117.276,321.716 116.077,320.701 113.600 C 319.134 109.774,318.974 109.577,318.200 110.515 M190.773 135.418 C 182.452 136.748,182.008 138.239,182.327 163.800 C 182.436 172.600,182.318 187.720,182.063 197.400 C 181.129 232.922,181.140 239.762,182.135 240.757 C 183.770 242.395,184.949 243.222,185.974 243.450 C 186.538 243.575,187.630 243.839,188.400 244.037 C 190.821 244.657,193.175 244.530,204.400 243.173 C 214.262 241.980,218.244 241.107,220.864 239.562 C 221.948 238.923,222.911 238.400,223.004 238.400 C 223.096 238.400,224.753 237.389,226.686 236.153 C 233.064 232.075,236.401 227.840,237.996 221.800 C 238.286 220.700,238.654 219.620,238.812 219.400 C 238.970 219.180,239.204 218.460,239.332 217.800 C 239.460 217.140,239.753 215.700,239.984 214.600 C 240.215 213.500,240.575 211.520,240.785 210.200 C 240.994 208.880,241.430 206.270,241.752 204.400 C 243.719 192.977,243.730 192.853,243.222 187.800 C 242.745 183.061,241.922 177.925,241.202 175.200 C 240.772 173.572,239.679 169.223,239.191 167.200 C 239.005 166.430,238.649 165.080,238.399 164.200 C 238.149 163.320,237.853 162.150,237.742 161.600 C 237.631 161.050,237.386 160.240,237.198 159.800 C 237.011 159.360,236.496 157.991,236.056 156.758 C 234.010 151.032,229.321 144.429,226.375 143.125 C 225.729 142.839,225.200 142.469,225.200 142.302 C 225.200 142.136,224.995 142.000,224.744 142.000 C 224.493 142.000,222.955 141.199,221.326 140.220 C 216.064 137.057,212.629 136.174,203.364 135.606 C 199.644 135.377,195.970 135.133,195.200 135.062 C 194.430 134.992,192.438 135.152,190.773 135.418 M207.400 139.786 C 213.867 140.743,218.010 142.284,223.126 145.635 C 228.564 149.197,231.095 152.972,233.563 161.200 C 233.794 161.970,234.333 163.680,234.762 165.000 C 235.191 166.320,235.752 168.660,236.008 170.200 C 236.671 174.183,237.086 176.337,237.588 178.400 C 239.512 186.304,239.666 194.859,238.013 202.000 C 237.165 205.666,236.992 206.749,236.001 214.600 C 234.988 222.621,230.381 230.952,226.241 232.246 C 225.779 232.391,224.648 233.025,223.728 233.655 C 222.808 234.285,221.863 234.800,221.628 234.800 C 221.393 234.800,221.200 234.947,221.200 235.126 C 221.200 235.458,215.842 237.166,212.200 237.995 C 211.100 238.246,209.570 238.605,208.800 238.793 C 205.362 239.635,202.976 240.001,200.869 240.008 C 199.621 240.012,197.371 240.194,195.869 240.411 C 191.239 241.080,186.800 240.023,186.800 238.252 C 186.800 237.919,186.594 237.520,186.343 237.365 C 186.003 237.155,185.955 230.095,186.155 209.841 C 186.303 194.858,186.463 174.050,186.512 163.600 L 186.600 144.600 188.000 142.309 C 188.794 141.009,189.833 139.854,190.400 139.640 C 191.891 139.078,203.275 139.176,207.400 139.786 M48.400 156.225 C 49.827 156.540,52.400 156.595,52.400 156.311 C 52.400 156.140,51.365 156.021,50.100 156.046 C 48.835 156.072,48.070 156.152,48.400 156.225 M355.227 169.150 C 354.992 169.588,354.800 170.331,354.800 170.800 C 354.800 171.269,354.624 171.981,354.410 172.382 C 354.087 172.985,354.230 173.198,355.236 173.615 C 357.069 174.374,357.625 173.609,357.274 170.805 C 356.976 168.422,356.027 167.655,355.227 169.150 M80.416 196.475 C 79.166 197.817,80.289 200.554,81.752 199.731 C 83.760 198.600,83.929 197.965,82.582 196.618 C 81.351 195.388,81.425 195.392,80.416 196.475 M334.070 234.126 C 332.544 235.750,334.653 237.805,336.229 236.229 C 336.785 235.672,336.810 235.391,336.394 234.386 C 335.803 232.959,335.227 232.894,334.070 234.126 M342.967 242.979 C 342.279 243.687,342.208 244.005,342.560 244.817 C 343.479 246.939,343.941 247.045,345.493 245.493 C 347.048 243.939,346.941 243.485,344.800 242.557 C 343.961 242.193,343.666 242.261,342.967 242.979 M359.726 242.997 C 358.759 243.674,358.866 244.774,359.996 245.797 C 360.666 246.402,360.772 246.363,361.597 245.204 L 362.480 243.964 361.579 243.182 C 360.506 242.251,360.755 242.276,359.726 242.997 M380.473 296.602 C 379.411 297.823,379.395 298.091,380.331 298.938 C 382.301 300.720,384.212 298.290,382.273 296.469 L 381.346 295.598 380.473 296.602 M0.000 326.000 C 0.000 328.391,0.004 328.400,1.180 328.400 C 7.095 328.400,9.518 331.396,8.373 337.292 C 7.537 341.595,8.136 343.597,10.733 345.190 C 16.316 348.614,17.026 348.742,31.600 348.941 C 45.471 349.131,47.182 349.519,49.432 352.982 C 51.228 355.747,51.315 356.461,51.433 369.400 C 51.546 381.664,51.736 384.153,53.013 390.000 C 53.374 391.650,53.761 394.575,53.874 396.500 L 54.080 400.000 63.840 400.000 L 73.600 400.000 73.600 398.820 C 73.600 391.805,68.725 388.750,62.371 391.785 C 60.400 392.727,59.945 392.618,57.825 390.701 C 57.398 390.316,56.933 390.000,56.792 390.000 C 56.496 390.000,55.077 385.546,54.433 382.600 C 54.170 381.396,53.999 375.789,54.004 368.513 C 54.017 346.568,53.377 346.013,28.081 346.003 C 19.584 346.000,18.615 345.929,17.106 345.200 C 16.195 344.760,15.217 344.400,14.932 344.400 C 14.648 344.400,14.304 343.905,14.169 343.300 C 14.033 342.695,13.773 341.612,13.591 340.892 C 13.405 340.158,13.422 339.019,13.630 338.295 C 14.693 334.588,13.717 328.060,11.815 326.158 C 10.306 324.649,6.851 323.600,3.389 323.600 L 0.000 323.600 0.000 326.000 M359.200 346.272 C 347.351 347.145,346.000 349.638,346.000 370.625 C 346.000 380.101,345.878 382.808,345.365 384.680 C 345.016 385.956,344.582 387.599,344.400 388.332 C 344.009 389.910,344.298 389.591,341.634 391.380 C 340.443 392.180,339.363 392.670,339.234 392.468 C 339.105 392.267,338.176 391.729,337.170 391.273 C 332.055 388.955,327.200 392.357,327.200 398.260 L 327.200 400.000 336.800 400.000 L 346.400 400.000 346.407 397.700 C 346.414 395.363,347.090 390.627,348.191 385.200 C 348.653 382.922,348.800 379.362,348.804 370.400 C 348.814 348.070,347.648 348.840,381.500 348.814 L 400.000 348.800 400.000 347.400 L 400.000 346.000 380.500 346.070 C 369.775 346.108,360.190 346.199,359.200 346.272 M0.000 365.225 L 0.000 366.800 13.569 366.800 C 33.233 366.800,34.587 367.366,33.833 375.275 C 33.700 376.664,33.487 382.795,33.359 388.900 L 33.125 400.000 34.702 400.000 L 36.280 400.000 36.504 385.700 C 36.865 362.681,38.354 364.160,14.500 363.842 L 0.000 363.649 0.000 365.225 M368.951 364.276 C 368.485 364.367,367.247 365.206,366.200 366.140 C 363.687 368.383,363.671 368.527,363.914 385.839 L 364.114 400.000 365.457 400.000 L 366.800 400.000 366.790 388.500 C 366.785 382.175,366.600 376.217,366.379 375.259 C 365.986 373.555,366.084 372.938,367.282 369.553 C 368.138 367.136,370.427 366.805,386.300 366.802 L 400.000 366.800 400.000 365.400 L 400.000 364.000 384.900 364.054 C 376.595 364.084,369.418 364.184,368.951 364.276 " stroke="none" fill="#575757" fill-rule="evenodd"></path><path id="path3" d="M36.456 15.500 C 36.611 32.236,36.607 32.276,34.458 34.073 C 31.804 36.293,32.664 36.190,15.718 36.329 C 5.696 36.411,0.000 36.601,0.000 36.854 C 0.000 37.111,5.587 37.206,15.900 37.125 L 31.800 37.000 33.600 35.994 C 36.567 34.334,37.381 32.191,37.391 26.000 C 37.419 10.012,37.174 0.000,36.756 0.000 C 36.436 0.000,36.353 4.328,36.456 15.500 M50.400 21.536 L 50.400 43.072 49.201 45.472 C 48.204 47.467,47.647 48.068,45.901 49.036 L 43.800 50.200 21.900 50.325 C 2.190 50.437,-0.000 50.513,-0.000 51.086 C -0.000 51.663,2.033 51.702,21.761 51.501 L 43.522 51.278 46.114 50.041 C 48.474 48.915,48.825 48.580,50.040 46.302 L 51.374 43.800 51.520 21.900 C 51.651 2.139,51.603 0.000,51.032 0.000 C 50.464 0.000,50.400 2.168,50.400 21.536 M348.810 20.700 C 348.825 52.569,347.630 50.923,371.200 51.551 C 381.485 51.826,385.713 52.086,387.800 52.573 C 389.340 52.932,391.368 53.401,392.306 53.613 C 395.004 54.225,400.000 54.117,400.000 53.447 C 400.000 53.028,399.046 52.838,396.100 52.668 C 393.955 52.544,391.300 52.252,390.200 52.018 C 385.103 50.934,382.549 50.733,370.200 50.443 C 362.940 50.273,356.640 49.997,356.200 49.830 C 349.783 47.401,349.600 46.578,349.600 20.180 C 349.600 6.993,349.461 0.000,349.200 0.000 C 348.938 0.000,348.803 7.160,348.810 20.700 M363.100 11.100 C 362.844 39.550,360.369 36.951,388.100 37.366 C 397.946 37.514,400.000 37.451,400.000 37.001 C 400.000 36.555,397.228 36.435,384.500 36.329 C 362.103 36.143,363.575 37.715,363.911 14.327 C 364.063 3.707,363.998 0.000,363.658 0.000 C 363.327 0.000,363.172 3.083,363.100 11.100 M143.805 106.065 C 139.594 106.550,135.869 107.806,134.225 109.297 C 133.798 109.684,133.303 110.000,133.124 110.000 C 132.945 110.000,132.007 111.075,131.040 112.389 C 124.333 121.499,129.537 133.739,141.000 135.817 C 144.055 136.371,146.606 138.484,147.500 141.200 C 148.852 145.313,149.079 168.957,148.179 211.800 C 147.997 220.441,148.087 223.839,148.630 228.800 C 149.843 239.896,149.831 240.308,148.248 242.439 C 146.900 244.252,143.483 246.312,140.638 247.026 C 140.015 247.182,138.556 248.245,137.396 249.387 C 130.477 256.196,132.208 267.097,140.877 271.317 C 147.137 274.365,148.645 274.508,171.668 274.247 C 197.249 273.957,205.739 273.431,220.200 271.243 C 227.562 270.129,239.289 266.472,240.800 264.819 C 240.910 264.698,241.630 264.281,242.400 263.890 C 243.170 263.500,244.812 262.420,246.050 261.490 C 247.287 260.561,248.791 259.440,249.392 259.000 C 254.748 255.077,261.725 247.474,263.891 243.200 C 264.281 242.430,264.708 241.710,264.840 241.600 C 265.196 241.304,268.400 234.543,268.400 234.089 C 268.400 233.754,268.834 232.677,270.774 228.200 C 270.964 227.760,271.477 226.590,271.913 225.600 C 275.615 217.189,276.744 203.213,275.598 179.959 C 275.064 169.114,274.138 163.257,271.904 156.600 C 271.110 154.234,270.894 153.751,268.510 149.000 C 267.847 147.680,266.995 145.880,266.617 145.000 C 266.238 144.120,265.685 142.940,265.388 142.378 C 265.091 141.817,264.471 140.350,264.011 139.120 C 263.287 137.187,260.387 132.189,259.647 131.600 C 259.509 131.490,258.865 130.680,258.216 129.800 C 255.555 126.190,249.033 120.400,247.628 120.400 C 247.393 120.400,247.200 120.220,247.200 120.000 C 247.200 119.780,246.953 119.600,246.652 119.600 C 246.178 119.600,244.076 117.970,242.008 116.000 C 232.989 107.404,227.678 106.446,187.600 106.193 C 172.750 106.098,157.540 105.949,153.800 105.859 C 150.060 105.770,145.562 105.863,143.805 106.065 M218.000 107.939 C 224.694 108.518,232.398 110.226,233.046 111.275 C 233.157 111.454,233.552 111.604,233.924 111.608 C 234.568 111.616,237.700 113.898,241.600 117.202 C 242.590 118.041,245.110 119.845,247.200 121.212 C 250.558 123.408,254.963 127.443,257.229 130.400 C 260.447 134.598,262.107 137.245,263.195 139.909 C 264.720 143.647,264.986 144.245,267.523 149.658 C 270.423 155.846,271.635 159.666,273.152 167.400 C 274.612 174.846,275.446 191.856,274.843 201.912 C 274.022 215.618,273.008 220.208,268.597 230.200 C 268.111 231.300,267.463 232.920,267.157 233.800 C 266.020 237.066,262.065 244.291,259.979 246.912 C 258.123 249.243,250.314 256.981,248.932 257.858 C 247.835 258.554,244.806 260.791,244.400 261.204 C 243.959 261.653,239.266 264.327,237.200 265.307 C 233.408 267.106,227.290 268.828,221.800 269.642 C 220.260 269.870,217.920 270.230,216.600 270.441 C 207.488 271.898,175.736 273.404,161.000 273.077 C 145.089 272.725,138.419 270.248,135.497 263.608 C 134.669 261.724,134.439 255.946,135.157 255.027 C 135.340 254.792,135.604 254.119,135.744 253.532 C 135.885 252.945,136.780 251.683,137.735 250.728 C 139.417 249.046,140.313 248.512,145.400 246.157 C 150.905 243.608,151.599 241.876,150.401 233.673 C 149.493 227.456,149.488 227.186,149.812 203.400 C 150.418 159.055,149.867 140.870,147.846 138.482 C 145.565 135.786,145.234 135.578,141.400 134.434 C 127.467 130.275,125.048 115.061,137.361 109.037 C 138.526 108.467,139.912 107.987,140.440 107.972 C 140.968 107.956,141.760 107.782,142.200 107.583 C 143.326 107.076,211.731 107.397,218.000 107.939 M190.600 133.998 C 185.058 134.679,182.381 136.749,181.288 141.200 C 180.928 142.665,180.327 196.234,180.210 237.272 C 180.187 245.408,187.544 246.931,211.000 243.644 C 216.903 242.817,220.776 241.431,224.670 238.752 C 225.591 238.118,226.537 237.600,226.772 237.600 C 227.007 237.600,227.200 237.453,227.200 237.274 C 227.200 237.095,227.785 236.665,228.500 236.318 C 231.493 234.867,237.600 228.117,237.600 226.259 C 237.600 225.970,237.718 225.616,237.862 225.472 C 238.865 224.469,240.997 216.948,241.794 211.600 C 242.408 207.486,242.963 204.428,243.610 201.600 C 245.311 194.159,245.042 186.523,242.731 176.600 C 242.526 175.720,242.107 173.830,241.800 172.400 C 241.145 169.350,240.617 167.177,240.027 165.100 C 239.792 164.275,239.435 163.015,239.233 162.300 C 237.768 157.109,234.696 149.947,233.300 148.471 C 233.025 148.181,232.798 147.821,232.796 147.671 C 232.784 146.886,228.478 143.047,225.928 141.548 C 224.318 140.601,222.910 139.722,222.800 139.594 C 219.575 135.847,201.340 132.678,190.600 133.998 M203.364 135.606 C 212.629 136.174,216.064 137.057,221.326 140.220 C 222.955 141.199,224.493 142.000,224.744 142.000 C 224.995 142.000,225.200 142.136,225.200 142.302 C 225.200 142.469,225.729 142.839,226.375 143.125 C 229.321 144.429,234.010 151.032,236.056 156.758 C 236.496 157.991,237.011 159.360,237.198 159.800 C 237.386 160.240,237.631 161.050,237.742 161.600 C 237.853 162.150,238.149 163.320,238.399 164.200 C 238.649 165.080,239.005 166.430,239.191 167.200 C 239.679 169.223,240.772 173.572,241.202 175.200 C 241.922 177.925,242.745 183.061,243.222 187.800 C 243.730 192.853,243.719 192.977,241.752 204.400 C 241.430 206.270,240.994 208.880,240.785 210.200 C 240.575 211.520,240.215 213.500,239.984 214.600 C 239.753 215.700,239.460 217.140,239.332 217.800 C 239.204 218.460,238.970 219.180,238.812 219.400 C 238.654 219.620,238.286 220.700,237.996 221.800 C 236.401 227.840,233.064 232.075,226.686 236.153 C 224.753 237.389,223.096 238.400,223.004 238.400 C 222.911 238.400,221.948 238.923,220.864 239.562 C 218.244 241.107,214.262 241.980,204.400 243.173 C 193.175 244.530,190.821 244.657,188.400 244.037 C 187.630 243.839,186.538 243.575,185.974 243.450 C 184.949 243.222,183.770 242.395,182.135 240.757 C 181.140 239.762,181.129 232.922,182.063 197.400 C 182.318 187.720,182.436 172.600,182.327 163.800 C 182.043 141.040,182.384 138.950,186.780 136.451 C 187.978 135.770,193.314 134.890,195.200 135.062 C 195.970 135.133,199.644 135.377,203.364 135.606 M0.000 329.600 C 0.000 330.741,0.082 330.800,1.661 330.800 C 5.167 330.800,7.588 335.180,5.375 337.517 C 3.629 339.362,3.571 339.695,4.629 341.827 C 5.667 343.918,6.124 344.265,11.400 346.970 C 16.107 349.382,17.353 349.600,26.443 349.600 C 50.171 349.600,50.059 349.504,50.470 370.200 C 50.619 377.680,50.917 384.790,51.133 386.000 C 51.896 390.275,52.793 397.019,52.797 398.500 C 52.799 399.607,52.968 400.000,53.440 400.000 C 54.251 400.000,54.021 394.616,53.013 390.000 C 51.736 384.153,51.546 381.664,51.433 369.400 C 51.315 356.461,51.228 355.747,49.432 352.982 C 47.182 349.519,45.471 349.131,31.600 348.941 C 17.026 348.742,16.316 348.614,10.733 345.190 C 8.136 343.597,7.537 341.595,8.373 337.292 C 9.306 332.486,7.924 329.593,4.326 328.822 C 0.818 328.069,0.000 328.216,0.000 329.600 M358.532 349.201 C 350.029 349.944,348.812 352.596,348.804 370.400 C 348.800 379.362,348.653 382.922,348.191 385.200 C 346.393 394.063,345.895 400.000,346.948 400.000 C 347.353 400.000,347.571 399.030,347.781 396.300 C 347.937 394.265,348.343 390.980,348.683 389.000 C 349.106 386.537,349.391 381.040,349.584 371.600 C 350.056 348.595,348.528 349.600,383.008 349.600 C 394.069 349.600,400.000 349.460,400.000 349.200 C 400.000 348.739,363.813 348.739,358.532 349.201 M0.000 363.120 C 0.000 363.586,9.888 364.000,21.014 364.000 C 31.528 364.000,31.897 364.057,34.124 366.017 C 36.679 368.266,36.766 368.987,36.504 385.700 C 36.310 398.080,36.358 400.000,36.864 400.000 C 37.368 400.000,37.442 397.877,37.400 384.700 C 37.327 361.793,38.990 363.453,15.700 363.042 C 6.619 362.882,0.000 362.915,0.000 363.120 M368.600 363.600 C 368.464 363.820,368.060 364.000,367.701 364.000 C 364.853 364.000,363.080 367.634,363.033 373.565 C 362.926 387.193,363.228 400.000,363.657 400.000 C 363.995 400.000,364.062 396.305,363.914 385.839 C 363.671 368.557,363.692 368.379,366.173 366.164 C 368.647 363.957,368.265 364.000,385.250 364.000 C 394.817 364.000,400.000 363.859,400.000 363.600 C 400.000 363.340,394.541 363.200,384.424 363.200 C 374.471 363.200,368.758 363.344,368.600 363.600 " stroke="none" fill="#7c7c7c" fill-rule="evenodd"></path><path id="path4" d="M37.256 15.500 L 37.400 31.000 36.400 32.994 C 35.666 34.457,34.922 35.255,33.600 35.994 L 31.800 37.000 15.900 37.125 C 0.480 37.246,-0.000 37.273,-0.000 38.025 C -0.000 38.772,0.429 38.804,11.900 38.900 C 40.627 39.141,39.382 40.246,38.934 14.900 C 38.680 0.489,38.646 -0.000,37.892 -0.000 C 37.131 -0.000,37.116 0.355,37.256 15.500 M48.800 19.933 C 48.800 44.282,48.815 44.178,44.728 47.419 C 43.614 48.303,33.527 48.804,16.900 48.802 C 0.097 48.800,-0.000 48.805,-0.000 49.625 C -0.000 50.449,0.008 50.449,21.900 50.325 L 43.800 50.200 45.901 49.036 C 47.647 48.068,48.204 47.467,49.201 45.472 L 50.400 43.072 50.400 21.536 C 50.400 0.267,50.390 0.000,49.600 0.000 C 48.811 0.000,48.800 0.267,48.800 19.933 M349.600 20.180 C 349.600 46.578,349.783 47.401,356.200 49.830 C 356.640 49.997,362.940 50.273,370.200 50.443 C 382.549 50.733,385.103 50.934,390.200 52.018 C 391.300 52.252,393.955 52.544,396.100 52.668 L 400.000 52.893 400.000 51.699 L 400.000 50.505 395.900 50.246 C 393.645 50.104,390.540 49.807,389.000 49.585 C 387.460 49.364,380.620 49.018,373.800 48.816 C 356.192 48.296,356.268 48.306,353.968 46.006 C 351.507 43.545,351.594 44.396,351.343 20.300 C 351.138 0.645,351.107 0.000,350.366 0.000 C 349.622 0.000,349.600 0.570,349.600 20.180 M361.500 10.300 C 361.281 32.863,361.358 33.765,363.732 36.342 C 365.787 38.574,367.557 38.802,384.700 39.049 L 400.000 39.269 400.000 38.434 C 400.000 37.799,399.737 37.591,398.900 37.564 C 398.295 37.544,391.230 37.394,383.200 37.229 C 361.383 36.781,362.981 38.497,363.158 15.700 L 363.280 -0.000 362.440 -0.000 C 361.611 -0.000,361.599 0.135,361.500 10.300 M142.200 107.583 C 141.760 107.782,140.968 107.956,140.440 107.972 C 136.993 108.073,131.677 112.626,130.300 116.658 C 127.568 124.657,131.902 131.599,141.400 134.434 C 145.234 135.578,145.565 135.786,147.846 138.482 C 149.867 140.870,150.418 159.055,149.812 203.400 C 149.488 227.186,149.493 227.456,150.401 233.673 C 151.599 241.876,150.905 243.608,145.400 246.157 C 140.313 248.512,139.417 249.046,137.735 250.728 C 136.780 251.683,135.885 252.945,135.744 253.532 C 135.604 254.119,135.340 254.792,135.157 255.027 C 134.439 255.946,134.669 261.724,135.497 263.608 C 138.419 270.248,145.089 272.725,161.000 273.077 C 175.736 273.404,207.488 271.898,216.600 270.441 C 217.920 270.230,220.260 269.870,221.800 269.642 C 227.290 268.828,233.408 267.106,237.200 265.307 C 239.266 264.327,243.959 261.653,244.400 261.204 C 244.806 260.791,247.835 258.554,248.932 257.858 C 250.314 256.981,258.123 249.243,259.979 246.912 C 262.065 244.291,266.020 237.066,267.157 233.800 C 267.463 232.920,268.111 231.300,268.597 230.200 C 273.008 220.208,274.022 215.618,274.843 201.912 C 275.446 191.856,274.612 174.846,273.152 167.400 C 271.635 159.666,270.423 155.846,267.523 149.658 C 264.986 144.245,264.720 143.647,263.195 139.909 C 262.107 137.245,260.447 134.598,257.229 130.400 C 254.963 127.443,250.558 123.408,247.200 121.212 C 245.110 119.845,242.590 118.041,241.600 117.202 C 237.700 113.898,234.568 111.616,233.924 111.608 C 233.552 111.604,233.157 111.454,233.046 111.275 C 232.398 110.226,224.694 108.518,218.000 107.939 C 211.731 107.397,143.326 107.076,142.200 107.583 M221.600 110.566 C 228.076 111.773,230.314 112.388,233.295 113.782 C 234.558 114.372,235.728 115.076,235.895 115.348 C 236.063 115.619,237.006 116.462,237.991 117.221 C 238.976 117.979,240.416 119.183,241.191 119.897 C 241.966 120.610,242.825 121.195,243.100 121.197 C 243.375 121.198,243.600 121.336,243.600 121.502 C 243.600 121.669,244.106 122.029,244.725 122.303 C 245.344 122.576,246.199 123.120,246.625 123.510 C 247.051 123.901,248.525 125.081,249.900 126.134 C 251.275 127.186,252.400 128.182,252.400 128.347 C 252.400 128.513,253.222 129.627,254.227 130.824 C 256.861 133.961,257.070 134.228,257.870 135.474 C 258.268 136.093,258.922 136.960,259.322 137.400 C 260.109 138.263,262.400 142.838,262.400 143.545 C 262.400 143.782,262.860 145.017,263.423 146.288 C 264.850 149.514,265.006 149.893,266.026 152.600 C 266.524 153.920,267.048 155.180,267.191 155.400 C 267.778 156.302,269.193 161.643,269.788 165.200 C 270.137 167.290,270.589 169.990,270.792 171.200 C 273.596 187.904,272.144 215.647,267.996 224.647 C 267.375 225.993,266.599 227.883,266.270 228.847 C 264.532 233.945,261.105 241.342,259.991 242.400 C 259.643 242.730,258.945 243.680,258.440 244.511 C 257.935 245.341,257.314 246.248,257.061 246.525 C 253.496 250.420,251.580 252.338,250.531 253.060 C 249.833 253.541,248.663 254.509,247.931 255.212 C 247.199 255.915,245.790 257.036,244.800 257.704 C 243.810 258.371,242.550 259.331,242.000 259.837 C 240.816 260.924,235.337 263.799,233.260 264.423 C 229.014 265.697,228.176 265.881,222.400 266.811 C 208.515 269.045,195.025 269.714,168.000 269.510 L 148.600 269.364 146.400 268.409 C 142.050 266.522,139.866 264.842,138.443 262.288 C 137.533 260.655,137.219 255.483,138.000 255.000 C 138.220 254.864,138.400 254.428,138.400 254.031 C 138.400 253.134,140.092 251.404,141.638 250.719 C 142.277 250.436,142.800 250.069,142.800 249.902 C 142.800 249.736,142.988 249.600,143.218 249.600 C 143.986 249.600,150.985 245.995,152.055 245.049 C 153.340 243.913,153.818 243.030,154.143 241.200 C 154.391 239.803,154.306 239.159,152.930 232.000 C 152.081 227.580,151.946 210.547,152.556 184.600 C 152.791 174.571,152.752 164.974,152.434 154.830 L 151.964 139.860 150.882 137.630 C 149.605 134.998,146.994 132.848,144.114 132.058 C 134.750 129.490,130.921 123.813,133.701 116.621 C 134.769 113.859,138.301 111.023,141.782 110.132 C 145.022 109.304,216.924 109.695,221.600 110.566 M188.000 131.263 C 178.453 133.867,177.849 135.747,178.233 161.662 C 178.445 175.998,177.805 231.208,177.351 237.763 C 177.209 239.825,177.299 241.287,177.613 241.963 C 177.877 242.533,178.220 243.270,178.376 243.600 C 179.064 245.054,182.355 246.731,185.097 247.026 C 188.683 247.411,207.002 246.976,210.800 246.415 C 216.408 245.588,220.400 244.550,220.400 243.920 C 220.400 243.744,220.664 243.600,220.986 243.600 C 221.751 243.600,225.104 241.721,226.273 240.637 C 226.777 240.170,227.867 239.432,228.695 238.998 C 229.523 238.563,230.290 238.115,230.400 238.002 C 230.510 237.888,231.320 237.264,232.200 236.615 C 235.175 234.419,237.346 231.808,239.187 228.212 C 239.979 226.665,240.836 225.040,241.091 224.600 C 241.662 223.616,243.600 217.202,243.600 216.296 C 243.600 215.934,243.761 215.224,243.959 214.719 C 244.156 214.213,244.530 212.540,244.790 211.000 C 245.050 209.460,245.654 206.400,246.132 204.200 C 247.627 197.310,247.335 181.474,245.612 176.000 C 244.696 173.092,243.622 169.168,243.259 167.400 C 242.135 161.936,241.454 159.608,240.377 157.544 C 239.730 156.303,239.200 155.093,239.200 154.854 C 239.200 151.609,233.179 143.201,229.200 140.889 C 228.210 140.314,226.610 139.159,225.644 138.322 C 224.678 137.485,223.724 136.800,223.524 136.800 C 223.325 136.800,222.225 136.213,221.081 135.496 C 216.702 132.753,214.676 132.208,205.132 131.206 C 200.389 130.708,189.907 130.743,188.000 131.263 M207.600 134.438 C 214.086 135.333,221.213 137.750,222.800 139.594 C 222.910 139.722,224.318 140.601,225.928 141.548 C 228.478 143.047,232.784 146.886,232.796 147.671 C 232.798 147.821,233.025 148.181,233.300 148.471 C 234.696 149.947,237.768 157.109,239.233 162.300 C 239.435 163.015,239.792 164.275,240.027 165.100 C 240.617 167.177,241.145 169.350,241.800 172.400 C 242.107 173.830,242.526 175.720,242.731 176.600 C 245.042 186.523,245.311 194.159,243.610 201.600 C 242.963 204.428,242.408 207.486,241.794 211.600 C 240.997 216.948,238.865 224.469,237.862 225.472 C 237.718 225.616,237.600 225.970,237.600 226.259 C 237.600 228.117,231.493 234.867,228.500 236.318 C 227.785 236.665,227.200 237.095,227.200 237.274 C 227.200 237.453,227.007 237.600,226.772 237.600 C 226.537 237.600,225.591 238.118,224.670 238.752 C 223.749 239.385,222.316 240.286,221.484 240.753 C 215.169 244.300,188.897 246.565,183.821 244.000 C 180.759 242.453,180.198 241.408,180.210 237.272 C 180.327 196.234,180.928 142.665,181.288 141.200 C 182.967 134.364,191.382 132.202,207.600 134.438 M0.000 339.000 L 0.000 347.200 1.580 347.200 C 3.388 347.200,6.246 347.911,10.000 349.294 C 14.071 350.794,16.783 351.153,25.800 351.388 C 30.420 351.509,36.440 351.722,39.177 351.862 L 44.154 352.116 46.021 353.983 C 48.470 356.432,48.445 356.263,48.794 372.400 C 48.959 379.990,49.381 388.990,49.731 392.400 C 50.082 395.810,50.376 398.915,50.385 399.300 C 50.396 399.808,50.730 400.000,51.600 400.000 C 53.199 400.000,53.099 397.019,51.133 386.000 C 50.917 384.790,50.619 377.680,50.470 370.200 C 50.059 349.504,50.171 349.600,26.443 349.600 C 17.353 349.600,16.107 349.382,11.400 346.970 C 6.124 344.265,5.667 343.918,4.629 341.827 C 3.571 339.695,3.629 339.362,5.375 337.517 C 7.588 335.180,5.167 330.800,1.661 330.800 L 0.000 330.800 0.000 339.000 M360.000 350.088 C 350.571 350.930,349.983 352.143,349.584 371.600 C 349.391 381.040,349.106 386.537,348.683 389.000 C 348.343 390.980,347.937 394.265,347.781 396.300 L 347.497 400.000 348.748 400.000 C 349.661 400.000,350.009 399.811,350.033 399.300 C 350.051 398.915,350.240 396.350,350.454 393.600 C 350.667 390.850,350.996 382.210,351.184 374.400 C 351.618 356.353,351.556 356.764,354.243 354.141 L 356.360 352.074 360.680 351.843 C 363.056 351.716,372.875 351.500,382.500 351.362 C 399.308 351.122,400.000 351.083,400.000 350.356 C 400.000 349.501,368.917 349.292,360.000 350.088 M0.000 361.675 L 0.000 362.672 9.065 362.936 C 14.050 363.081,21.065 363.200,24.654 363.200 C 36.178 363.200,37.470 364.527,37.303 376.200 C 37.104 390.094,37.584 400.000,38.456 400.000 C 39.201 400.000,39.220 399.555,39.102 384.500 C 38.920 361.107,39.474 361.821,21.200 361.427 C 15.590 361.306,8.525 361.088,5.500 360.942 L 0.000 360.677 0.000 361.675 M366.911 362.164 C 361.714 364.055,361.492 364.931,361.337 384.100 L 361.208 400.000 362.243 400.000 L 363.278 400.000 363.139 384.700 C 363.007 370.225,363.042 369.300,363.784 367.550 C 364.566 365.706,366.448 364.000,367.701 364.000 C 368.060 364.000,368.464 363.820,368.600 363.600 C 368.758 363.344,374.471 363.200,384.424 363.200 C 399.733 363.200,400.000 363.186,400.000 362.400 C 400.000 361.435,369.513 361.218,366.911 362.164 " stroke="none" fill="#848484" fill-rule="evenodd"></path></g></svg>